<svg xmlns="http://www.w3.org/2000/svg" data-name="Layer 1" viewBox="0 0 512 512" id="hotels"><path fill="#cae6f7" d="M37.5 168.5h119a30 30 0 0 1 30 30v306H7.5v-306a30 30 0 0 1 30-30zm318 0h119a30 30 0 0 1 30 30v306h-179v-306a30 30 0 0 1 30-30z"></path><path fill="#b8dff7" d="M474.5 168.5h-45a30 30 0 0 1 30 30v306h45v-306a30 30 0 0 0-30-30zm-323-71h209a30 30 0 0 1 30 30v377h-269v-377a30 30 0 0 1 30-30z"></path><rect width="179" height="179" x="166.5" y="7.5" fill="#bcd44c" rx="30"></rect><path fill="#aece44" d="M315.5 7.5h-30a30 30 0 0 1 30 30v119a30 30 0 0 1-30 30h30a30 30 0 0 0 30-30v-119a30 30 0 0 0-30-30Z"></path><path fill="#e1e1e3" d="M255.818 59.274a14.944 14.944 0 0 1 14.944 14.945v13.486h-29.889V74.22a14.944 14.944 0 0 1 14.945-14.945Z"></path><path fill="#fff" d="M255.089 84.425h1.458a50.3 50.3 0 0 1 50.3 50.3h-102.06a50.3 50.3 0 0 1 50.302-50.3Z"></path><path fill="#8b8893" d="M239 343.5h34a30 30 0 0 1 30 30v131h-94v-131a30 30 0 0 1 30-30Z"></path><path fill="#787681" d="M273 343.5h-30a30 30 0 0 1 30 30v131h30v-131a30 30 0 0 0-30-30Z"></path><rect width="67" height="67" x="166.5" y="231.5" fill="#52bbe9" rx="4"></rect><path fill="#1cabe1" d="M229.5 231.5h-30a4 4 0 0 1 4 4v59a4 4 0 0 1-4 4h30a4 4 0 0 0 4-4v-59a4 4 0 0 0-4-4Z"></path><rect width="67" height="67" x="278.5" y="231.5" fill="#52bbe9" rx="4"></rect><path fill="#1cabe1" d="M341.5 231.5h-30a4 4 0 0 1 4 4v59a4 4 0 0 1-4 4h30a4 4 0 0 0 4-4v-59a4 4 0 0 0-4-4Z"></path><path fill="#52bbe9" d="M390.5 231.5h63a4 4 0 0 1 4 4v59a4 4 0 0 1-4 4h-63v-67Z"></path><path fill="#1cabe1" d="M453.5 231.5h-30a4 4 0 0 1 4 4v59a4 4 0 0 1-4 4h30a4 4 0 0 0 4-4v-59a4 4 0 0 0-4-4Z"></path><path fill="#52bbe9" d="M58.5 231.5h63v67h-63a4 4 0 0 1-4-4v-59a4 4 0 0 1 4-4Z"></path><path fill="#1cabe1" d="M91.5 231.5h30v67h-30z"></path><path fill="#52bbe9" d="M390.5 351.5h63a4 4 0 0 1 4 4v59a4 4 0 0 1-4 4h-63v-67Z"></path><path fill="#1cabe1" d="M453.5 351.5h-30a4 4 0 0 1 4 4v59a4 4 0 0 1-4 4h30a4 4 0 0 0 4-4v-59a4 4 0 0 0-4-4Z"></path><path fill="#52bbe9" d="M58.5 351.5h63v67h-63a4 4 0 0 1-4-4v-59a4 4 0 0 1 4-4Z"></path><path fill="#1cabe1" d="M91.5 351.5h30v67h-30z"></path><path fill="#3c3b41" d="M233.5 224h-67a7.5 7.5 0 0 0-7.5 7.5v67a7.5 7.5 0 0 0 7.5 7.5h67a7.5 7.5 0 0 0 7.5-7.5v-67a7.5 7.5 0 0 0-7.5-7.5Zm-7.5 67h-52v-52h52Zm248.5-130H398v-33.5A37.542 37.542 0 0 0 360.5 90H353V37.5A37.542 37.542 0 0 0 315.5 0h-119A37.542 37.542 0 0 0 159 37.5V90h-7.5a37.542 37.542 0 0 0-37.5 37.5V161H37.5A37.542 37.542 0 0 0 0 198.5v306a7.5 7.5 0 0 0 7.5 7.5h497a7.5 7.5 0 0 0 7.5-7.5v-306a37.542 37.542 0 0 0-37.5-37.5ZM114 411H62v-52h52Zm0-120H62v-52h52Zm0-67H54.5a7.5 7.5 0 0 0-7.5 7.5v67a7.5 7.5 0 0 0 7.5 7.5H114v38H54.5a7.5 7.5 0 0 0-7.5 7.5v67a7.5 7.5 0 0 0 7.5 7.5H114v71H15V198.5A22.525 22.525 0 0 1 37.5 176H114Zm60-186.5A22.525 22.525 0 0 1 196.5 15h119A22.526 22.526 0 0 1 338 37.5v119a22.526 22.526 0 0 1-22.5 22.5h-119a22.525 22.525 0 0 1-22.5-22.5ZM295.5 497h-79V373.5A22.525 22.525 0 0 1 239 351h34a22.526 22.526 0 0 1 22.5 22.5Zm87.5 0h-72.5V373.5A37.542 37.542 0 0 0 273 336h-34a37.542 37.542 0 0 0-37.5 37.5V497H129V127.5a22.525 22.525 0 0 1 22.5-22.5h7.5v51.5a37.542 37.542 0 0 0 37.5 37.5h119a37.542 37.542 0 0 0 37.5-37.5V105h7.5a22.526 22.526 0 0 1 22.5 22.5Zm15-258h52v52h-52Zm0 120h52v52h-52Zm99 138h-99v-71h59.5a7.5 7.5 0 0 0 7.5-7.5v-67a7.5 7.5 0 0 0-7.5-7.5H398v-38h59.5a7.5 7.5 0 0 0 7.5-7.5v-67a7.5 7.5 0 0 0-7.5-7.5H398v-48h76.5a22.526 22.526 0 0 1 22.5 22.5ZM194.217 142.226h123.565a7.5 7.5 0 1 0 0-15h-3.937a57.958 57.958 0 0 0-35.585-46.052V74.22a22.445 22.445 0 1 0-44.89 0v6.956a57.957 57.957 0 0 0-35.58 46.05h-3.573a7.5 7.5 0 0 0 0 15ZM248.37 74.22a7.458 7.458 0 0 1 7.45-7.45 7.454 7.454 0 0 1 7.44 7.45v3.108a58.041 58.041 0 0 0-6.713-.403h-1.458a58.041 58.041 0 0 0-6.719.404Zm6.719 17.705h1.458a42.872 42.872 0 0 1 42.142 35.3h-85.743a42.873 42.873 0 0 1 42.143-35.3ZM345.5 224h-67a7.5 7.5 0 0 0-7.5 7.5v67a7.5 7.5 0 0 0 7.5 7.5h67a7.5 7.5 0 0 0 7.5-7.5v-67a7.5 7.5 0 0 0-7.5-7.5Zm-7.5 67h-52v-52h52Z"></path></svg>