<svg width="30" height="35" viewBox="0 0 30 35" fill="none" xmlns="http://www.w3.org/2000/svg">
<path d="M2.27594 13.125C2.27594 11.9219 2.45802 10.6094 2.82217 9.51562C3.09528 8.53125 3.27736 7.54687 3.18632 6.5625C3.18632 5.90625 3.55048 5.46875 4.0967 5.46875C4.64293 5.46875 5.00709 5.90625 5.00709 6.5625C5.00709 7.76563 4.82501 9.07813 4.46086 10.1719C4.18774 11.0469 4.00567 12.0312 4.00567 13.125C4.00567 13.7813 3.64151 14.2188 3.09528 14.2188C2.54905 14.2188 2.27594 13.7813 2.27594 13.125ZM7.00993 10.9375C7.55616 10.9375 7.92031 10.5 7.92031 9.84375C7.92031 9.40625 8.01135 8.96875 8.10239 8.53125C8.3755 7.98438 8.46654 7.21875 8.46654 6.5625C8.46654 5.90625 8.10239 5.46875 7.55616 5.46875C7.00993 5.46875 6.64577 5.90625 6.64577 6.5625C6.64577 7 6.55474 7.4375 6.4637 7.875C6.19058 8.42187 6.09955 9.1875 6.09955 9.84375C6.09955 10.5 6.55474 10.9375 7.00993 10.9375ZM25.0355 13.125C25.0355 13.7813 25.3996 14.2188 25.9459 14.2188C26.4921 14.2188 26.8563 13.7813 26.8563 13.125C26.8563 11.9219 26.6742 10.6094 26.31 9.51562C26.0369 8.64062 25.8548 7.65625 25.8548 6.5625C25.8548 5.90625 25.4907 5.46875 24.9445 5.46875C24.3982 5.46875 24.0341 5.90625 24.0341 6.5625C24.0341 7.76563 24.2162 9.07813 24.5803 10.1719C24.9445 11.1563 25.1265 12.1406 25.0355 13.125ZM21.2119 9.84375C21.2119 10.5 21.576 10.9375 22.1223 10.9375C22.6685 10.9375 23.0327 10.5 23.0327 9.84375C23.0327 9.1875 22.9416 8.42187 22.7595 7.875C22.6685 7.4375 22.5775 7 22.5775 6.5625C22.5775 5.90625 22.2133 5.46875 21.6671 5.46875C21.1209 5.46875 20.7567 5.90625 20.7567 6.5625C20.7567 7.21875 20.8477 7.98438 21.0298 8.53125C21.1209 8.96875 21.2119 9.40625 21.2119 9.84375ZM3.64151 24.0625H25.4907C25.4907 17.5 21.485 12.0313 16.0227 11.0469C16.66 10.0625 16.3869 8.75 15.5675 7.98438C14.7482 7.21875 13.6557 7.65625 13.0185 8.64063C12.5633 9.40625 12.5633 10.3906 13.0185 11.1562C7.6472 12.0312 3.64151 17.5 3.64151 24.0625ZM3.27736 28.1094C3.73255 28.9844 4.64293 29.5312 5.55332 29.5312H23.6699C24.5803 29.5312 25.3996 28.9844 25.9459 28.1094L26.9473 26.25H2.27594L3.27736 28.1094Z" fill="#333333"/>
</svg>
