<svg width="30" height="27" viewBox="0 0 30 27" fill="none" xmlns="http://www.w3.org/2000/svg">
<path d="M26.4011 22.1231C25.4876 22.1114 24.5993 22.401 23.8949 22.9402C23.4945 23.262 22.9823 23.4391 22.4523 23.439C21.9223 23.439 21.4101 23.2617 21.0099 22.9397C20.2994 22.4111 19.4155 22.1231 18.5045 22.1231C17.5934 22.1232 16.7096 22.4114 15.9992 22.9402C15.5999 23.2619 15.0885 23.4391 14.5594 23.4391C14.0303 23.4391 13.5189 23.2619 13.1196 22.9402C12.4099 22.4114 11.5266 22.1232 10.616 22.1232C9.70545 22.1232 8.82218 22.4114 8.11248 22.9402C7.71858 23.2694 7.20445 23.4477 6.67408 23.4391C6.14346 23.4476 5.62908 23.2694 5.23467 22.9403C4.53115 22.4013 3.6438 22.1117 2.73112 22.1231C2.48967 22.1231 2.25811 22.212 2.08738 22.3703C1.91665 22.5285 1.82074 22.7431 1.82074 22.9669C1.82074 23.1907 1.91665 23.4053 2.08738 23.5635C2.25811 23.7218 2.48967 23.8106 2.73112 23.8106C3.26203 23.802 3.77673 23.9803 4.17135 24.3096C4.87447 24.8486 5.76163 25.1383 6.67408 25.1266C7.5867 25.1378 8.47397 24.8483 9.17763 24.3096C9.57645 23.9879 10.0873 23.8107 10.616 23.8107C11.1447 23.8107 11.6556 23.9879 12.0544 24.3096C12.7643 24.8383 13.6477 25.1266 14.5584 25.1266C15.4692 25.1266 16.3526 24.8383 17.0624 24.3096C17.4626 23.9877 17.9747 23.8106 18.5046 23.8106C19.0344 23.8107 19.5465 23.988 19.9465 24.31C20.6572 24.8385 21.5411 25.1266 22.4523 25.1266C23.3634 25.1266 24.2474 24.8385 24.958 24.31C25.3534 23.9801 25.8692 23.8016 26.4011 23.8106C26.6425 23.8106 26.8741 23.7218 27.0448 23.5635C27.2155 23.4053 27.3114 23.1907 27.3114 22.9669C27.3114 22.7431 27.2155 22.5285 27.0448 22.3703C26.8741 22.212 26.6425 22.1231 26.4011 22.1231Z" fill="#333333"/>
<path d="M2.73112 20.4356C3.26393 20.4263 3.78066 20.6049 4.17672 20.9354C4.7596 21.3776 5.46832 21.6538 6.21707 21.7305L6.22799 21.7309L6.23127 21.7317C6.36373 21.7421 6.51931 21.7515 6.67317 21.7515C7.5875 21.7633 8.47654 21.4732 9.18118 20.9331C9.58049 20.6117 10.0917 20.4349 10.6206 20.4354C11.1495 20.4358 11.6603 20.6134 12.059 20.9355C12.7686 21.4639 13.6516 21.7518 14.5618 21.7517C15.472 21.7515 16.3549 21.4633 17.0643 20.9347C17.4632 20.613 17.9741 20.4358 18.5029 20.4355C19.0317 20.4352 19.5428 20.6119 19.9422 20.9331C20.6468 21.4732 21.5358 21.7633 22.4502 21.7515C22.612 21.7515 22.7542 21.7424 22.8955 21.7321L22.9 21.7312L22.9151 21.7305C23.6651 21.6533 24.3751 21.377 24.9599 20.9349C25.3549 20.6056 25.8698 20.4272 26.4011 20.4356C26.6425 20.4356 26.8741 20.3467 27.0448 20.1885C27.2155 20.0302 27.3114 19.8156 27.3114 19.5919C27.3114 19.3681 27.2155 19.1535 27.0448 18.9952C26.8741 18.837 26.6425 18.7481 26.4011 18.7481C25.6343 18.7312 24.8813 18.9381 24.2484 19.3396L25.456 15.4188C25.4944 15.2933 25.5009 15.1612 25.475 15.0329C25.4491 14.9046 25.3915 14.7836 25.3066 14.6795C25.2218 14.5753 25.112 14.4908 24.986 14.4325C24.86 14.3743 24.7211 14.3439 24.5803 14.3437H4.55189C4.41104 14.3439 4.27215 14.3743 4.14611 14.4325C4.02008 14.4908 3.91032 14.5753 3.82547 14.6795C3.74062 14.7837 3.68299 14.9047 3.65708 15.033C3.63118 15.1613 3.63772 15.2934 3.67619 15.419L4.88281 19.3365C4.24977 18.9364 3.49714 18.7306 2.73112 18.7481C2.48967 18.7481 2.25811 18.837 2.08738 18.9952C1.91665 19.1535 1.82074 19.3681 1.82074 19.5919C1.82074 19.8156 1.91665 20.0302 2.08738 20.1885C2.25811 20.3467 2.48967 20.4356 2.73112 20.4356ZM5.46227 13.5H14.5661C14.8075 13.5 15.0391 13.4111 15.2098 13.2529C15.3806 13.0946 15.4765 12.88 15.4765 12.6562V2.53123C15.4765 2.35777 15.4189 2.18851 15.3114 2.0465C15.2039 1.90449 15.0519 1.79663 14.8759 1.73761C14.6999 1.67858 14.5085 1.67126 14.3279 1.71665C14.1473 1.76203 13.9861 1.85791 13.8664 1.99123L4.76255 12.1162C4.65181 12.2395 4.58125 12.3894 4.55914 12.5484C4.53703 12.7075 4.56429 12.8691 4.63772 13.0143C4.71115 13.1595 4.82771 13.2823 4.97374 13.3683C5.11978 13.4544 5.28924 13.5 5.46227 13.5ZM17.2972 13.5H23.6699C23.8364 13.5 23.9997 13.4576 24.1421 13.3776C24.2844 13.2975 24.4003 13.1828 24.4773 13.046C24.5542 12.9091 24.5891 12.7553 24.5783 12.6013C24.5674 12.4473 24.5112 12.299 24.4158 12.1726L18.0431 3.7351C17.9321 3.58808 17.7734 3.47769 17.5901 3.41996C17.4067 3.36224 17.2083 3.3602 17.0237 3.41412C16.839 3.46805 16.6777 3.57513 16.5632 3.71983C16.4486 3.86452 16.3869 4.03929 16.3869 4.21873V12.6562C16.3869 12.88 16.4828 13.0946 16.6535 13.2529C16.8242 13.4111 17.0558 13.5 17.2972 13.5Z" fill="#333333"/>
</svg>
