<svg width="30" height="29" viewBox="0 0 30 29" fill="none" xmlns="http://www.w3.org/2000/svg">
<path d="M4.82643 14V24C4.82643 24.2652 4.72412 24.5196 4.54201 24.7071C4.35989 24.8946 4.1129 25 3.85535 25C3.59781 25 3.35081 24.8946 3.1687 24.7071C2.98659 24.5196 2.88428 24.2652 2.88428 24V14C2.88428 13.7348 2.98659 13.4804 3.1687 13.2929C3.35081 13.1054 3.59781 13 3.85535 13C4.1129 13 4.35989 13.1054 4.54201 13.2929C4.72412 13.4804 4.82643 13.7348 4.82643 14Z" fill="#333333"/>
<path d="M2.88428 14H27.1611V23H2.88428V14ZM4.82643 6V12H6.76857V11C6.76857 10.7348 6.87088 10.4804 7.053 10.2929C7.23511 10.1054 7.4821 10 7.73965 10H13.0806C13.3381 10 13.5851 10.1054 13.7672 10.2929C13.9493 10.4804 14.0516 10.7348 14.0516 11V12.008H15.9938V11C15.9938 10.7348 16.0961 10.4804 16.2782 10.2929C16.4603 10.1054 16.7073 10 16.9649 10H22.3058C22.5633 10 22.8103 10.1054 22.9924 10.2929C23.1745 10.4804 23.2768 10.7348 23.2768 11V12H25.219V6C25.219 5.46957 25.0144 4.96086 24.6501 4.58579C24.2859 4.21071 23.7919 4 23.2768 4H6.76857C6.25348 4 5.75949 4.21071 5.39527 4.58579C5.03104 4.96086 4.82643 5.46957 4.82643 6Z" fill="#333333"/>
<path d="M27.1611 14V24C27.1611 24.2652 27.0588 24.5196 26.8767 24.7071C26.6946 24.8946 26.4476 25 26.1901 25C25.9325 25 25.6855 24.8946 25.5034 24.7071C25.3213 24.5196 25.219 24.2652 25.219 24V14C25.219 13.7348 25.3213 13.4804 25.5034 13.2929C25.6855 13.1054 25.9325 13 26.1901 13C26.4476 13 26.6946 13.1054 26.8767 13.2929C27.0588 13.4804 27.1611 13.7348 27.1611 14Z" fill="#333333"/>
</svg>
